<svg width="33" height="30" viewBox="0 0 33 30" fill="none" xmlns="http://www.w3.org/2000/svg">
    <path
        d="M15.9189 22.3893H14.973L15.9089 16.8899H13.0126H12.9717C12.8467 16.8893 12.727 16.8408 12.6387 16.7548C12.5504 16.6689 12.5007 16.5525 12.5004 16.4311C12.5164 16.3284 12.5517 16.2294 12.6044 16.1389L17.8107 7.71304H18.7732L17.8107 13.2254H20.7225H20.769C20.831 13.2252 20.8924 13.237 20.9497 13.2599C21.007 13.2828 21.0591 13.3165 21.1029 13.359C21.1468 13.4016 21.1816 13.452 21.2054 13.5076C21.2291 13.5632 21.2414 13.6228 21.2414 13.683C21.2391 13.7812 21.2037 13.8759 21.1407 13.9527L15.9189 22.3893ZM16.8736 2.96777C14.4114 2.96777 12.0045 3.6768 9.95717 5.00519C7.90989 6.33358 6.31423 8.22167 5.37197 10.4307C4.42971 12.6397 4.18317 15.0705 4.66353 17.4156C5.14389 19.7607 6.32958 21.9148 8.07064 23.6055C9.81171 25.2962 12.03 26.4476 14.4449 26.9141C16.8598 27.3806 19.363 27.1412 21.6378 26.2262C23.9126 25.3111 25.8569 23.7616 27.2249 21.7736C28.5928 19.7855 29.323 17.4481 29.323 15.0571C29.323 11.8508 28.0113 8.77584 25.6766 6.50865C23.3419 4.24147 20.1754 2.96777 16.8736 2.96777V2.96777Z"
        fill="#0E063D" />
</svg>