<svg width="58" height="46" viewBox="0 0 58 46" fill="none" xmlns="http://www.w3.org/2000/svg">
<g filter="url(#filter0_b_130_7418)">
<rect width="31.2023" height="31.2023" rx="3.46185" transform="matrix(0.866025 -0.5 0.872837 0.488012 1.79297 30.0029)" fill="#EF8A6E"/>
<rect x="0.0668854" y="-0.000461122" width="31.1254" height="31.1254" rx="3.42339" transform="matrix(0.866025 -0.5 0.872837 0.488012 1.80233 30.0361)" stroke="url(#paint0_linear_130_7418)" stroke-width="0.0769301"/>
<rect x="0.0668854" y="-0.000461122" width="31.1254" height="31.1254" rx="3.42339" transform="matrix(0.866025 -0.5 0.872837 0.488012 1.80233 30.0361)" stroke="url(#paint1_radial_130_7418)" stroke-width="0.0769301"/>
</g>
<g filter="url(#filter1_b_130_7418)">
<rect width="33.2338" height="33.2338" rx="3.46185" transform="matrix(0.866025 -0.5 0.872837 0.488012 0.105469 17.3877)" fill="url(#paint2_linear_130_7418)" fill-opacity="0.3"/>
<rect x="0.506708" y="-0.00349335" width="32.651" height="32.651" rx="3.17045" transform="matrix(0.866025 -0.5 0.872837 0.488012 0.176404 17.6393)" stroke="url(#paint3_linear_130_7418)" stroke-width="0.582804"/>
<rect x="0.506708" y="-0.00349335" width="32.651" height="32.651" rx="3.17045" transform="matrix(0.866025 -0.5 0.872837 0.488012 0.176404 17.6393)" stroke="url(#paint4_radial_130_7418)" stroke-width="0.582804"/>
</g>
<path d="M24.394 17.1266C24.3915 16.7704 24.8977 16.4782 25.5246 16.4739L32.3351 16.4269C32.962 16.4226 33.4722 16.7078 33.4747 17.064C33.4771 17.4202 32.9709 17.7125 32.344 17.7168L25.5335 17.7638C24.9066 17.7681 24.3965 17.4828 24.394 17.1266Z" fill="white"/>
<path d="M28.9166 14.5155C29.5434 14.5112 30.0536 14.7965 30.0561 15.1527L30.0828 19.0224C30.0852 19.3786 29.579 19.6708 28.9521 19.6751C28.3252 19.6795 27.815 19.3942 27.8126 19.038L27.7859 15.1683C27.7835 14.8121 28.2897 14.5199 28.9166 14.5155Z" fill="white"/>
<defs>
<filter id="filter0_b_130_7418" x="1.24816" y="13.0954" width="55.3462" height="33.441" filterUnits="userSpaceOnUse" color-interpolation-filters="sRGB">
<feFlood flood-opacity="0" result="BackgroundImageFix"/>
<feGaussianBlur in="BackgroundImageFix" stdDeviation="1.15395"/>
<feComposite in2="SourceAlpha" operator="in" result="effect1_backgroundBlur_130_7418"/>
<feBlend mode="normal" in="SourceGraphic" in2="effect1_backgroundBlur_130_7418" result="shape"/>
</filter>
<filter id="filter1_b_130_7418" x="-0.439342" y="-0.535442" width="58.8787" height="35.4478" filterUnits="userSpaceOnUse" color-interpolation-filters="sRGB">
<feFlood flood-opacity="0" result="BackgroundImageFix"/>
<feGaussianBlur in="BackgroundImageFix" stdDeviation="1.15395"/>
<feComposite in2="SourceAlpha" operator="in" result="effect1_backgroundBlur_130_7418"/>
<feBlend mode="normal" in="SourceGraphic" in2="effect1_backgroundBlur_130_7418" result="shape"/>
</filter>
<linearGradient id="paint0_linear_130_7418" x1="4.49037" y1="-1.11437" x2="33.7373" y2="15.9619" gradientUnits="userSpaceOnUse">
<stop offset="0.188941" stop-color="#EF8A6E" stop-opacity="0.523483"/>
<stop offset="0.526042" stop-color="#EF8A6E"/>
<stop offset="1" stop-color="#EF8A6E" stop-opacity="0.1"/>
</linearGradient>
<radialGradient id="paint1_radial_130_7418" cx="0" cy="0" r="1" gradientUnits="userSpaceOnUse" gradientTransform="translate(4.66308 30.1808) rotate(-50.9773) scale(24.5041 40.0669)">
<stop stop-color="white"/>
<stop offset="1" stop-color="white" stop-opacity="0"/>
</radialGradient>
<linearGradient id="paint2_linear_130_7418" x1="3.55639" y1="3.06622" x2="39.4279" y2="21.64" gradientUnits="userSpaceOnUse">
<stop stop-color="#EF8A6E" stop-opacity="0.9"/>
<stop offset="0.447036" stop-color="#EF8A6E" stop-opacity="0.955296"/>
<stop offset="1" stop-color="#EF8A6E" stop-opacity="0.9"/>
</linearGradient>
<linearGradient id="paint3_linear_130_7418" x1="4.78273" y1="-1.18692" x2="35.9339" y2="17.0011" gradientUnits="userSpaceOnUse">
<stop offset="0.188941" stop-color="#EF8A6E" stop-opacity="0.523483"/>
<stop offset="0.526042" stop-color="#EF8A6E"/>
<stop offset="1" stop-color="#EF8A6E" stop-opacity="0.1"/>
</linearGradient>
<radialGradient id="paint4_radial_130_7418" cx="0" cy="0" r="1" gradientUnits="userSpaceOnUse" gradientTransform="translate(4.96668 32.1458) rotate(-50.9773) scale(26.0995 42.6756)">
<stop stop-color="white"/>
<stop offset="1" stop-color="white" stop-opacity="0"/>
</radialGradient>
</defs>
</svg>
