<svg width="65" height="65" viewBox="0 0 65 65" fill="none" xmlns="http://www.w3.org/2000/svg">
<path d="M35.057 47.7892C32.0311 48.2858 28.9259 47.874 26.134 46.6059C23.3421 45.3377 20.989 43.2702 19.3722 40.6647C17.7554 38.0592 16.9475 35.0327 17.0508 31.9681C17.154 28.9035 18.1636 25.9382 19.9521 23.4474C21.7405 20.9566 24.2274 19.0521 27.0983 17.9746C29.9692 16.8972 33.0951 16.6953 36.0807 17.3944C39.0663 18.0935 41.7776 19.6623 43.8716 21.9023C45.9657 24.1423 47.3484 26.953 47.8451 29.9789L32.5459 32.49L35.057 47.7892Z" fill="#375FDA"/>
<g filter="url(#filter0_b_130_7402)">
<path d="M26.5521 10.3027C30.9424 9.12635 35.583 9.27826 39.887 10.7393C44.191 12.2003 47.9651 14.9048 50.732 18.5107C53.499 22.1167 55.1345 26.4621 55.4318 30.9976C55.729 35.5331 54.6747 40.0549 52.4021 43.9911C50.1295 47.9274 46.7407 51.1014 42.6642 53.1117C38.5878 55.1219 34.0067 55.8783 29.5004 55.285C24.9941 54.6917 20.7649 52.7755 17.3476 49.7787C13.9303 46.7818 11.4785 42.8389 10.3021 38.4486L32.5 32.5006L26.5521 10.3027Z" fill="url(#paint0_linear_130_7402)" fill-opacity="0.3"/>
<path d="M10.6096 38.625L32.5647 32.7421L32.8062 32.6774L32.7415 32.4359L26.8586 10.4808C31.1295 9.38664 35.6284 9.55769 39.8066 10.976C44.0638 12.4211 47.7968 15.0962 50.5337 18.6629C53.2705 22.2296 54.8883 26.5278 55.1823 31.014C55.4763 35.5001 54.4335 39.9727 52.1856 43.8661C49.9377 47.7596 46.5858 50.899 42.5537 52.8874C38.5215 54.8759 33.9903 55.624 29.533 55.0372C25.0757 54.4503 20.8925 52.555 17.5124 49.5907C14.195 46.6814 11.7974 42.8707 10.6096 38.625Z" stroke="url(#paint1_linear_130_7402)" stroke-width="0.5"/>
</g>
<g filter="url(#filter1_b_130_7402)">
<path fill-rule="evenodd" clip-rule="evenodd" d="M32.5 32.5006L10.3021 38.4486C10.3116 38.484 10.3211 38.5194 10.3308 38.5547C11.5181 42.9024 13.9579 46.806 17.3476 49.7787C20.7649 52.7755 24.9941 54.6917 29.5004 55.285C34.0067 55.8783 38.5878 55.1219 42.6642 53.1117C46.7407 51.1014 50.1295 47.9274 52.4021 43.9911C54.6747 40.0549 55.729 35.5331 55.4318 30.9976C55.1345 26.4621 53.499 22.1167 50.732 18.5107C47.9651 14.9048 44.191 12.2003 39.887 10.7393C35.6177 9.29004 31.0173 9.12888 26.6584 10.2745C26.6229 10.2838 26.5875 10.2932 26.5521 10.3027L32.5 32.5006ZM26.6868 10.3807L32.6347 32.5784L10.437 38.5262C11.6187 42.853 14.0467 46.7376 17.4201 49.696C20.821 52.6785 25.03 54.5856 29.5147 55.176C33.9995 55.7664 38.5586 55.0137 42.6156 53.013C46.6726 51.0124 50.0451 47.8536 52.3069 43.9362C54.5686 40.0187 55.6179 35.5186 55.322 31.0048C55.0262 26.491 53.3985 22.1664 50.6448 18.5777C47.8911 14.989 44.135 12.2974 39.8516 10.8434C35.603 9.40115 31.0247 9.24072 26.6868 10.3807Z" fill="url(#paint2_linear_130_7402)"/>
<path fill-rule="evenodd" clip-rule="evenodd" d="M32.5 32.5006L10.3021 38.4486C10.3116 38.484 10.3211 38.5194 10.3308 38.5547C11.5181 42.9024 13.9579 46.806 17.3476 49.7787C20.7649 52.7755 24.9941 54.6917 29.5004 55.285C34.0067 55.8783 38.5878 55.1219 42.6642 53.1117C46.7407 51.1014 50.1295 47.9274 52.4021 43.9911C54.6747 40.0549 55.729 35.5331 55.4318 30.9976C55.1345 26.4621 53.499 22.1167 50.732 18.5107C47.9651 14.9048 44.191 12.2003 39.887 10.7393C35.6177 9.29004 31.0173 9.12888 26.6584 10.2745C26.6229 10.2838 26.5875 10.2932 26.5521 10.3027L32.5 32.5006ZM26.6868 10.3807L32.6347 32.5784L10.437 38.5262C11.6187 42.853 14.0467 46.7376 17.4201 49.696C20.821 52.6785 25.03 54.5856 29.5147 55.176C33.9995 55.7664 38.5586 55.0137 42.6156 53.013C46.6726 51.0124 50.0451 47.8536 52.3069 43.9362C54.5686 40.0187 55.6179 35.5186 55.322 31.0048C55.0262 26.491 53.3985 22.1664 50.6448 18.5777C47.8911 14.989 44.135 12.2974 39.8516 10.8434C35.603 9.40115 31.0247 9.24072 26.6868 10.3807Z" fill="url(#paint3_radial_130_7402)"/>
</g>
<defs>
<filter id="filter0_b_130_7402" x="6.30212" y="5.51953" width="53.1788" height="53.9619" filterUnits="userSpaceOnUse" color-interpolation-filters="sRGB">
<feFlood flood-opacity="0" result="BackgroundImageFix"/>
<feGaussianBlur in="BackgroundImageFix" stdDeviation="2"/>
<feComposite in2="SourceAlpha" operator="in" result="effect1_backgroundBlur_130_7402"/>
<feBlend mode="normal" in="SourceGraphic" in2="effect1_backgroundBlur_130_7402" result="shape"/>
</filter>
<filter id="filter1_b_130_7402" x="3.70472" y="2.92212" width="58.3736" height="59.1567" filterUnits="userSpaceOnUse" color-interpolation-filters="sRGB">
<feFlood flood-opacity="0" result="BackgroundImageFix"/>
<feGaussianBlur in="BackgroundImageFix" stdDeviation="3.2987"/>
<feComposite in2="SourceAlpha" operator="in" result="effect1_backgroundBlur_130_7402"/>
<feBlend mode="normal" in="SourceGraphic" in2="effect1_backgroundBlur_130_7402" result="shape"/>
</filter>
<linearGradient id="paint0_linear_130_7402" x1="19.0731" y1="54.7981" x2="31.0452" y2="0.230288" gradientUnits="userSpaceOnUse">
<stop stop-color="#5A81FF" stop-opacity="0.9"/>
<stop offset="0.447036" stop-color="#567DFF" stop-opacity="0.955296"/>
<stop offset="1" stop-color="#4E78FF" stop-opacity="0.9"/>
</linearGradient>
<linearGradient id="paint1_linear_130_7402" x1="4" y1="32.5005" x2="61" y2="67.0005" gradientUnits="userSpaceOnUse">
<stop stop-color="white"/>
<stop offset="1" stop-color="white" stop-opacity="0"/>
</linearGradient>
<linearGradient id="paint2_linear_130_7402" x1="12.9525" y1="54.6823" x2="26.0989" y2="6.55832" gradientUnits="userSpaceOnUse">
<stop offset="0.188941" stop-color="#E7F0FF" stop-opacity="0.523483"/>
<stop offset="0.526042" stop-color="#88A4FF"/>
<stop offset="1" stop-color="#B4D2FF" stop-opacity="0.1"/>
</linearGradient>
<radialGradient id="paint3_radial_130_7402" cx="0" cy="0" r="1" gradientUnits="userSpaceOnUse" gradientTransform="translate(57.4146 42.5053) rotate(-155.977) scale(36.0952 59.0198)">
<stop stop-color="white"/>
<stop offset="1" stop-color="white" stop-opacity="0"/>
</radialGradient>
</defs>
</svg>
