<svg width="24" height="25" viewBox="0 0 24 25" fill="none" xmlns="http://www.w3.org/2000/svg">
    <path
        d="M10 14.4354C10.3259 14.768 10.7148 15.0323 11.1441 15.2126C11.5734 15.393 12.0344 15.4859 12.5 15.4859C12.9656 15.4859 13.4266 15.393 13.8559 15.2126C14.2852 15.0323 14.6741 14.768 15 14.4354L19 10.4354C19.663 9.7724 20.0355 8.87312 20.0355 7.93544C20.0355 6.99775 19.663 6.09848 19 5.43544C18.337 4.7724 17.4377 4.3999 16.5 4.3999C15.5623 4.3999 14.663 4.7724 14 5.43544L13.5 5.93544"
        stroke="#5858E0" stroke-width="2" stroke-linecap="round" stroke-linejoin="round" />
    <path
        d="M13.9999 10.4353C13.674 10.1027 13.285 9.83845 12.8558 9.65806C12.4265 9.47768 11.9655 9.38477 11.4999 9.38477C11.0343 9.38477 10.5733 9.47768 10.144 9.65806C9.71474 9.83845 9.32577 10.1027 8.99989 10.4353L4.99989 14.4353C4.33685 15.0983 3.96436 15.9976 3.96436 16.9353C3.96436 17.873 4.33685 18.7722 4.99989 19.4353C5.66293 20.0983 6.56221 20.4708 7.49989 20.4708C8.43757 20.4708 9.33685 20.0983 9.99989 19.4353L10.4999 18.9353"
        stroke="#5858E0" stroke-width="2" stroke-linecap="round" stroke-linejoin="round" />
</svg>