<svg width="136" height="59" viewBox="0 0 136 59" fill="none" xmlns="http://www.w3.org/2000/svg">
    <g clip-path="url(#clip0_466_497)">
        <path
            d="M40.4605 26H36.8783V15.8947H40.4901C41.5066 15.8947 42.3816 16.097 43.1151 16.5016C43.8487 16.903 44.4128 17.4803 44.8076 18.2336C45.2056 18.9868 45.4046 19.8882 45.4046 20.9375C45.4046 21.9901 45.2056 22.8947 44.8076 23.6513C44.4128 24.4079 43.8454 24.9885 43.1053 25.3931C42.3684 25.7977 41.4868 26 40.4605 26ZM39.0148 24.1694H40.3717C41.0033 24.1694 41.5345 24.0576 41.9655 23.8339C42.3997 23.6069 42.7253 23.2566 42.9424 22.7829C43.1628 22.3059 43.273 21.6908 43.273 20.9375C43.273 20.1908 43.1628 19.5806 42.9424 19.1069C42.7253 18.6332 42.4013 18.2845 41.9704 18.0609C41.5395 17.8372 41.0082 17.7253 40.3766 17.7253H39.0148V24.1694ZM48.1591 26H45.8697L49.3581 15.8947H52.1114L55.595 26H53.3055L50.7743 18.2039H50.6953L48.1591 26ZM48.016 22.028H53.4239V23.6957H48.016V22.028ZM56.8113 26V15.8947H60.7981C61.5613 15.8947 62.2126 16.0312 62.7521 16.3043C63.2948 16.574 63.7076 16.9572 63.9905 17.4539C64.2767 17.9474 64.4198 18.528 64.4198 19.1957C64.4198 19.8668 64.2751 20.4441 63.9856 20.9276C63.6961 21.4079 63.2767 21.7763 62.7274 22.0329C62.1813 22.2895 61.5201 22.4178 60.7438 22.4178H58.0744V20.7007H60.3984C60.8063 20.7007 61.1451 20.6447 61.4149 20.5329C61.6846 20.4211 61.8853 20.2533 62.0169 20.0296C62.1517 19.8059 62.2192 19.528 62.2192 19.1957C62.2192 18.8602 62.1517 18.5773 62.0169 18.347C61.8853 18.1168 61.683 17.9424 61.41 17.824C61.1402 17.7023 60.7998 17.6414 60.3886 17.6414H58.9478V26H56.8113ZM62.2685 21.4013L64.78 26H62.4215L59.9642 21.4013H62.2685ZM65.9297 26V15.8947H68.0662V20.3503H68.1994L71.8359 15.8947H74.3968L70.6468 20.4194L74.4412 26H71.8853L69.1172 21.8454L68.0662 23.1283V26H65.9297ZM78.7253 15.8947H81.3602L84.1431 22.6842H84.2615L87.0444 15.8947H89.6793V26H87.6069V19.4227H87.523L84.9079 25.9507H83.4967L80.8816 19.398H80.7977V26H78.7253V15.8947ZM100.726 20.9474C100.726 22.0493 100.517 22.9868 100.099 23.7599C99.6846 24.5329 99.1188 25.1234 98.4017 25.5312C97.6879 25.9359 96.8853 26.1382 95.9938 26.1382C95.0958 26.1382 94.2899 25.9342 93.5761 25.5263C92.8623 25.1184 92.2981 24.528 91.8836 23.7549C91.4692 22.9819 91.2619 22.0461 91.2619 20.9474C91.2619 19.8454 91.4692 18.9079 91.8836 18.1349C92.2981 17.3618 92.8623 16.773 93.5761 16.3684C94.2899 15.9605 95.0958 15.7566 95.9938 15.7566C96.8853 15.7566 97.6879 15.9605 98.4017 16.3684C99.1188 16.773 99.6846 17.3618 100.099 18.1349C100.517 18.9079 100.726 19.8454 100.726 20.9474ZM98.5596 20.9474C98.5596 20.2336 98.4527 19.6316 98.2389 19.1414C98.0284 18.6513 97.7307 18.2796 97.3458 18.0263C96.9609 17.773 96.5103 17.6464 95.9938 17.6464C95.4774 17.6464 95.0267 17.773 94.6419 18.0263C94.257 18.2796 93.9576 18.6513 93.7438 19.1414C93.5333 19.6316 93.428 20.2336 93.428 20.9474C93.428 21.6612 93.5333 22.2632 93.7438 22.7533C93.9576 23.2434 94.257 23.6151 94.6419 23.8684C95.0267 24.1217 95.4774 24.2484 95.9938 24.2484C96.5103 24.2484 96.9609 24.1217 97.3458 23.8684C97.7307 23.6151 98.0284 23.2434 98.2389 22.7533C98.4527 22.2632 98.5596 21.6612 98.5596 20.9474ZM105.891 26H102.308V15.8947H105.92C106.937 15.8947 107.812 16.097 108.545 16.5016C109.279 16.903 109.843 17.4803 110.238 18.2336C110.636 18.9868 110.835 19.8882 110.835 20.9375C110.835 21.9901 110.636 22.8947 110.238 23.6513C109.843 24.4079 109.275 24.9885 108.535 25.3931C107.799 25.7977 106.917 26 105.891 26ZM104.445 24.1694H105.802C106.433 24.1694 106.965 24.0576 107.396 23.8339C107.83 23.6069 108.155 23.2566 108.373 22.7829C108.593 22.3059 108.703 21.6908 108.703 20.9375C108.703 20.1908 108.593 19.5806 108.373 19.1069C108.155 18.6332 107.831 18.2845 107.4 18.0609C106.97 17.8372 106.438 17.7253 105.807 17.7253H104.445V24.1694ZM112.417 26V15.8947H119.227V17.6562H114.554V20.0641H118.876V21.8257H114.554V24.2385H119.246V26H112.417ZM45.7944 36.4326H43.6332C43.5938 36.153 43.5132 35.9046 43.3914 35.6875C43.2697 35.4671 43.1135 35.2796 42.9227 35.125C42.7319 34.9704 42.5115 34.852 42.2615 34.7697C42.0148 34.6875 41.7467 34.6464 41.4572 34.6464C40.9342 34.6464 40.4786 34.7763 40.0905 35.0362C39.7023 35.2928 39.4013 35.6678 39.1875 36.1612C38.9737 36.6513 38.8668 37.2467 38.8668 37.9474C38.8668 38.6678 38.9737 39.273 39.1875 39.7632C39.4046 40.2533 39.7072 40.6234 40.0954 40.8734C40.4836 41.1234 40.9326 41.2484 41.4424 41.2484C41.7286 41.2484 41.9934 41.2105 42.2368 41.1349C42.4836 41.0592 42.7023 40.949 42.8931 40.8043C43.0839 40.6562 43.2418 40.477 43.3668 40.2664C43.4951 40.0559 43.5839 39.8158 43.6332 39.5461L45.7944 39.5559C45.7385 40.0197 45.5987 40.4671 45.375 40.898C45.1546 41.3257 44.8569 41.7089 44.4819 42.0477C44.1102 42.3832 43.6661 42.6497 43.1497 42.847C42.6365 43.0411 42.0559 43.1382 41.4079 43.1382C40.5066 43.1382 39.7007 42.9342 38.9901 42.5263C38.2829 42.1184 37.7237 41.528 37.3125 40.7549C36.9046 39.9819 36.7007 39.0461 36.7007 37.9474C36.7007 36.8454 36.9079 35.9079 37.3224 35.1349C37.7368 34.3618 38.2993 33.773 39.0099 33.3684C39.7204 32.9605 40.5197 32.7566 41.4079 32.7566C41.9934 32.7566 42.5362 32.8388 43.0362 33.0033C43.5395 33.1678 43.9852 33.4079 44.3734 33.7237C44.7615 34.0362 45.0773 34.4194 45.3207 34.8734C45.5674 35.3273 45.7253 35.847 45.7944 36.4326ZM47.3265 43V32.8947H49.463V37.0641H53.8002V32.8947H55.9317V43H53.8002V38.8257H49.463V43H47.3265ZM57.6933 43V32.8947H64.5025V34.6562H59.8298V37.0641H64.1521V38.8257H59.8298V41.2385H64.5222V43H57.6933ZM75.1172 36.4326H72.956C72.9165 36.153 72.8359 35.9046 72.7142 35.6875C72.5925 35.4671 72.4363 35.2796 72.2455 35.125C72.0547 34.9704 71.8343 34.852 71.5843 34.7697C71.3376 34.6875 71.0695 34.6464 70.78 34.6464C70.257 34.6464 69.8014 34.7763 69.4132 35.0362C69.0251 35.2928 68.7241 35.6678 68.5103 36.1612C68.2965 36.6513 68.1896 37.2467 68.1896 37.9474C68.1896 38.6678 68.2965 39.273 68.5103 39.7632C68.7274 40.2533 69.03 40.6234 69.4182 40.8734C69.8063 41.1234 70.2553 41.2484 70.7652 41.2484C71.0514 41.2484 71.3162 41.2105 71.5596 41.1349C71.8063 41.0592 72.0251 40.949 72.2159 40.8043C72.4067 40.6562 72.5646 40.477 72.6896 40.2664C72.8178 40.0559 72.9067 39.8158 72.956 39.5461L75.1172 39.5559C75.0613 40.0197 74.9215 40.4671 74.6978 40.898C74.4774 41.3257 74.1797 41.7089 73.8047 42.0477C73.433 42.3832 72.9889 42.6497 72.4725 42.847C71.9593 43.0411 71.3787 43.1382 70.7307 43.1382C69.8294 43.1382 69.0234 42.9342 68.3129 42.5263C67.6057 42.1184 67.0465 41.528 66.6353 40.7549C66.2274 39.9819 66.0234 39.0461 66.0234 37.9474C66.0234 36.8454 66.2307 35.9079 66.6451 35.1349C67.0596 34.3618 67.6221 33.773 68.3326 33.3684C69.0432 32.9605 69.8425 32.7566 70.7307 32.7566C71.3162 32.7566 71.859 32.8388 72.359 33.0033C72.8623 33.1678 73.308 33.4079 73.6961 33.7237C74.0843 34.0362 74.4001 34.4194 74.6435 34.8734C74.8902 35.3273 75.0481 35.847 75.1172 36.4326ZM76.6493 43V32.8947H78.7858V37.3503H78.919L82.5555 32.8947H85.1164L81.3664 37.4194L85.1608 43H82.6049L79.8368 38.8454L78.7858 40.1283V43H76.6493ZM86.229 43V32.8947H93.0382V34.6562H88.3655V37.0641H92.6879V38.8257H88.3655V41.2385H93.058V43H86.229ZM94.7368 43V32.8947H98.7237C99.4868 32.8947 100.138 33.0312 100.678 33.3043C101.22 33.574 101.633 33.9572 101.916 34.4539C102.202 34.9474 102.345 35.528 102.345 36.1957C102.345 36.8668 102.201 37.4441 101.911 37.9276C101.622 38.4079 101.202 38.7763 100.653 39.0329C100.107 39.2895 99.4457 39.4178 98.6694 39.4178H96V37.7007H98.324C98.7319 37.7007 99.0707 37.6447 99.3405 37.5329C99.6102 37.4211 99.8109 37.2533 99.9424 37.0296C100.077 36.8059 100.145 36.528 100.145 36.1957C100.145 35.8602 100.077 35.5773 99.9424 35.347C99.8109 35.1168 99.6086 34.9424 99.3355 34.824C99.0658 34.7023 98.7253 34.6414 98.3141 34.6414H96.8734V43H94.7368ZM100.194 38.4013L102.706 43H100.347L97.8898 38.4013H100.194Z"
            fill="#061045" />
        <mask id="mask0_466_497" style="mask-type:alpha" maskUnits="userSpaceOnUse" x="-4" y="7" width="23" height="43">
            <rect x="-4" y="7.99976" width="22.4" height="41.6" fill="#D9D9D9" />
        </mask>
        <g mask="url(#mask0_466_497)">
            <circle cx="18.0004" cy="29.9999" r="13.2" stroke="white" stroke-width="4.8" />
            <circle cx="18.0004" cy="29.9999" r="13.2" stroke="url(#paint0_linear_466_497)" stroke-width="4.8" />
            <circle cx="18.0004" cy="29.9999" r="13.2" stroke="url(#paint1_linear_466_497)" stroke-width="4.8" />
        </g>
        <mask id="mask1_466_497" style="mask-type:alpha" maskUnits="userSpaceOnUse" x="18" y="18" width="15"
            height="25">
            <rect x="18.4004" y="18.3997" width="13.6" height="23.6741" fill="#D9D9D9" />
        </mask>
        <g mask="url(#mask1_466_497)">
            <circle cx="18.1484" cy="30.2368" r="7.42222" stroke="white" stroke-width="4.8" />
            <circle cx="18.1484" cy="30.2368" r="7.42222" stroke="url(#paint2_linear_466_497)" stroke-width="4.8" />
            <circle cx="18.1484" cy="30.2368" r="7.42222" stroke="url(#paint3_linear_466_497)" stroke-width="4.8" />
        </g>
    </g>
    <defs>
        <linearGradient id="paint0_linear_466_497" x1="37.2004" y1="30.3999" x2="2" y2="45.9998"
            gradientUnits="userSpaceOnUse">
            <stop stop-color="#5858E0" />
            <stop offset="1" stop-color="#5858E0" stop-opacity="0" />
        </linearGradient>
        <linearGradient id="paint1_linear_466_497" x1="10.4004" y1="15.5999" x2="14.4004" y2="24.7999"
            gradientUnits="userSpaceOnUse">
            <stop stop-color="#20C58B" />
            <stop offset="1" stop-color="#20C58B" stop-opacity="0" />
        </linearGradient>
        <linearGradient id="paint2_linear_466_497" x1="30.2373" y1="30.4886" x2="13.8669" y2="40.059"
            gradientUnits="userSpaceOnUse">
            <stop offset="0.09777" stop-color="#5858E0" />
            <stop offset="1" stop-color="#5858E0" stop-opacity="0" />
        </linearGradient>
        <linearGradient id="paint3_linear_466_497" x1="14.8743" y1="19.9108" x2="15.8817" y2="26.9627"
            gradientUnits="userSpaceOnUse">
            <stop stop-color="#20C58B" />
            <stop offset="1" stop-color="#20C58B" stop-opacity="0" />
        </linearGradient>
        <clipPath id="clip0_466_497">
            <rect width="136" height="58.3419" fill="white" transform="translate(0 0.206055)" />
        </clipPath>
    </defs>
</svg>