<svg width="263" height="48" viewBox="0 0 263 48" fill="none" xmlns="http://www.w3.org/2000/svg">
    <path
        d="M9.89168 22.4051C15.0898 24.0005 18.4866 28.3237 24.1993 28.3237C30.015 28.3237 34.2352 22.7653 37.3232 22.4051C40.1024 22.0448 44.4256 23.0741 47.9768 24.7725V10.7222C48.0282 4.85502 43.2933 0.120117 37.4262 0.120117H11.0239C5.15677 0.120117 0.421875 4.85502 0.421875 10.7222V24.0005C2.9952 22.7653 6.80371 21.4272 9.89168 22.4051Z"
        fill="#20C58B" />
    <path
        d="M37.3232 22.4023C34.2352 22.8141 30.015 28.3209 24.1993 28.3209C18.6924 28.3209 15.1412 23.9978 9.89169 22.4023C6.80371 21.4244 2.9952 22.7625 0.421875 23.9978V37.0702C0.421875 42.9374 5.15677 47.6723 11.0239 47.6723H37.4262C43.2933 47.6723 48.0282 42.9374 48.0282 37.0702V24.7182C44.477 23.0713 40.1024 22.042 37.3232 22.4023Z"
        fill="#5858E0" />
    <path
        d="M10.8174 37.7429C8.96458 37.7429 7.47205 36.2504 7.47205 34.3976V13.4508C7.47205 11.598 8.96458 10.1055 10.8174 10.1055C12.6701 10.1055 14.1627 11.598 14.1627 13.4508V34.3462C14.1627 36.1989 12.6701 37.7429 10.8174 37.7429Z"
        fill="white" />
    <path
        d="M24.2008 33.0049C22.3481 33.0049 20.8556 31.5124 20.8556 29.6597V18.1826C20.8556 16.3299 22.3481 14.8374 24.2008 14.8374C26.0536 14.8374 27.5462 16.3299 27.5462 18.1826V29.7111C27.5462 31.5124 26.0536 33.0049 24.2008 33.0049Z"
        fill="white" />
    <path
        d="M37.5794 37.7429C35.7267 37.7429 34.2341 36.2504 34.2341 34.3976V13.4508C34.2341 11.598 35.7267 10.1055 37.5794 10.1055C39.4322 10.1055 40.9248 11.598 40.9248 13.4508V34.3462C40.9248 36.1989 39.4322 37.7429 37.5794 37.7429Z"
        fill="white" />
    <path
        d="M91.6206 14.8361C93.2162 16.483 93.9881 18.902 93.9881 22.0414V35.0109H90.2826V22.4016C90.2826 20.1886 89.7679 18.5417 88.6871 17.358C87.6064 16.1742 86.1653 15.6081 84.261 15.6081C82.3052 15.6081 80.7613 16.2772 79.5776 17.5638C78.3939 18.8504 77.8276 20.7547 77.8276 23.2251V35.0624H74.1221V22.4016C74.1221 20.1886 73.556 18.5417 72.4752 17.358C71.3944 16.1742 69.9533 15.6081 68.1006 15.6081C66.1449 15.6081 64.5494 16.2772 63.3656 17.5638C62.1819 18.8504 61.6158 20.7547 61.6158 23.2251V35.0624H57.9102V12.726H61.6158V17.8212C62.1819 16.0713 63.1083 14.7331 64.498 13.7553C65.8875 12.8289 67.4829 12.3657 69.3358 12.3657C71.24 12.3657 72.8869 12.8289 74.2766 13.8068C75.6661 14.7847 76.644 16.1742 77.2615 18.0785C77.8792 16.2772 78.9085 14.8876 80.4011 13.8583C81.842 12.8804 83.5405 12.3657 85.3418 12.3657C87.9665 12.3657 90.0252 13.1891 91.6206 14.8361Z"
        fill="white" />
    <path
        d="M114.368 14.063C115.861 15.1438 116.942 16.5849 117.508 18.3863V12.725H121.213V35.0098H117.508V29.3486C116.89 31.1498 115.861 32.5909 114.368 33.6717C112.876 34.7525 111.023 35.3187 108.861 35.3187C106.906 35.3187 105.104 34.8555 103.56 33.9291C102.016 33.0026 100.781 31.6645 99.9063 29.9661C99.0314 28.2678 98.5682 26.2091 98.5682 23.8931C98.5682 21.5771 99.0314 19.5185 99.9063 17.82C100.781 16.0702 102.016 14.7836 103.56 13.8572C105.104 12.9308 106.854 12.4676 108.861 12.4676C111.074 12.4161 112.876 12.9822 114.368 14.063ZM104.487 17.923C103.097 19.364 102.428 21.3712 102.428 23.8931C102.428 26.4149 103.097 28.4221 104.487 29.8632C105.876 31.3043 107.678 32.0248 109.942 32.0248C111.383 32.0248 112.721 31.6645 113.854 30.9955C114.986 30.3264 115.912 29.3486 116.581 28.1133C117.25 26.8781 117.559 25.4371 117.559 23.8416C117.559 22.1947 117.25 20.8051 116.581 19.5185C115.912 18.2832 115.037 17.3055 113.854 16.6363C112.721 15.9673 111.383 15.6585 109.942 15.6585C107.678 15.7099 105.825 16.4305 104.487 17.923Z"
        fill="white" />
    <path
        d="M127.187 4.54581C127.65 4.13408 128.267 3.92822 129.039 3.92822C129.811 3.92822 130.429 4.13408 130.892 4.54581C131.355 4.95754 131.561 5.52367 131.561 6.19274C131.561 6.8618 131.355 7.42793 130.892 7.83966C130.429 8.25139 129.811 8.45725 129.039 8.45725C128.267 8.45725 127.65 8.25139 127.187 7.83966C126.723 7.42793 126.517 6.8618 126.517 6.19274C126.466 5.52367 126.723 4.95754 127.187 4.54581ZM130.841 12.729V35.0139H127.135V12.729H130.841Z"
        fill="white" />
    <path d="M140.464 4.95654V35.0129H136.758V4.95654H140.464Z" fill="white" />
    <path
        d="M180.094 14.8361C181.689 16.483 182.461 18.902 182.461 22.0414V35.0109H178.756V22.4016C178.756 20.1886 178.241 18.5417 177.161 17.358C176.079 16.1742 174.638 15.6081 172.734 15.6081C170.778 15.6081 169.235 16.2772 168.051 17.5638C166.867 18.8504 166.3 20.7547 166.3 23.2251V35.0624H162.596V22.4016C162.596 20.1886 162.029 18.5417 160.948 17.358C159.868 16.1742 158.427 15.6081 156.574 15.6081C154.619 15.6081 153.022 16.2772 151.838 17.5638C150.655 18.8504 150.089 20.7547 150.089 23.2251V35.0624H146.383V12.726H150.089V17.8212C150.655 16.0713 151.581 14.7331 152.971 13.7553C154.361 12.8289 155.956 12.3657 157.809 12.3657C159.713 12.3657 161.36 12.8289 162.75 13.8068C164.139 14.7847 165.117 16.1742 165.734 18.0785C166.353 16.2772 167.382 14.8876 168.874 13.8583C170.315 12.8804 172.014 12.3657 173.814 12.3657C176.44 12.3657 178.498 13.1891 180.094 14.8361Z"
        fill="white" />
    <path
        d="M204.076 13.8095C205.774 14.7358 207.112 16.074 208.038 17.7725C209.016 19.5223 209.479 21.5295 209.479 23.8454C209.479 26.1615 209.016 28.2201 208.038 29.9185C207.061 31.6168 205.774 32.955 204.076 33.8814C202.377 34.8077 200.473 35.2709 198.311 35.2709C196.15 35.2709 194.246 34.8077 192.547 33.8814C190.848 32.955 189.51 31.6168 188.532 29.9185C187.555 28.2201 187.091 26.1615 187.091 23.8454C187.091 21.5295 187.555 19.4708 188.532 17.7725C189.51 16.0226 190.848 14.7358 192.547 13.8095C194.246 12.8831 196.15 12.4199 198.311 12.4199C200.473 12.4199 202.377 12.8831 204.076 13.8095ZM194.658 16.5887C193.525 17.2062 192.65 18.0812 191.93 19.3165C191.26 20.5516 190.901 22.0956 190.901 23.8969C190.901 25.6982 191.26 27.1908 191.93 28.4259C192.599 29.6612 193.525 30.5875 194.658 31.1536C195.79 31.7713 197.025 32.0286 198.311 32.0286C199.649 32.0286 200.885 31.7197 201.965 31.1536C203.098 30.536 203.972 29.6612 204.693 28.4259C205.413 27.1908 205.722 25.6982 205.722 23.8969C205.722 22.0956 205.362 20.5516 204.693 19.3165C204.025 18.0812 203.098 17.1548 201.965 16.5887C200.834 15.9711 199.598 15.7137 198.311 15.7137C197.025 15.7137 195.79 15.9711 194.658 16.5887Z"
        fill="white" />
    <path
        d="M228.982 14.0661C230.475 15.1468 231.556 16.5879 232.122 18.3893V4.95654H235.828V35.0129H232.122V29.3516C231.505 31.153 230.475 32.5939 228.982 33.6747C227.49 34.7555 225.637 35.3216 223.475 35.3216C221.52 35.3216 219.718 34.8585 218.175 33.9321C216.631 33.0057 215.395 31.6675 214.52 29.9692C213.645 28.2708 213.182 26.2122 213.182 23.8961C213.182 21.5802 213.645 19.5215 214.52 17.8232C215.395 16.0733 216.631 14.7866 218.175 13.8602C219.718 12.9338 221.468 12.4706 223.475 12.4706C225.637 12.4192 227.49 12.9853 228.982 14.0661ZM219.05 17.9261C217.66 19.3672 216.99 21.3744 216.99 23.8961C216.99 26.418 217.66 28.4252 219.05 29.8663C220.439 31.3073 222.241 32.0278 224.504 32.0278C225.946 32.0278 227.285 31.6675 228.417 30.9985C229.548 30.3295 230.475 29.3516 231.144 28.1163C231.813 26.8812 232.122 25.4401 232.122 23.8447C232.122 22.1978 231.813 20.8081 231.144 19.5215C230.475 18.2863 229.601 17.3084 228.417 16.6394C227.285 15.9703 225.946 15.6615 224.504 15.6615C222.241 15.7131 220.439 16.4336 219.05 17.9261Z"
        fill="white" />
    <path
        d="M257.595 13.8095C259.294 14.7358 260.632 16.074 261.559 17.7725C262.537 19.5223 263 21.5295 263 23.8454C263 26.1615 262.537 28.2201 261.559 29.9185C260.581 31.6168 259.294 32.955 257.595 33.8814C255.898 34.8077 253.994 35.2709 251.832 35.2709C249.671 35.2709 247.765 34.8077 246.068 33.8814C244.369 32.955 243.031 31.6168 242.053 29.9185C241.075 28.2201 240.612 26.1615 240.612 23.8454C240.612 21.5295 241.075 19.4708 242.053 17.7725C243.031 16.0226 244.369 14.7358 246.068 13.8095C247.765 12.8831 249.671 12.4199 251.832 12.4199C253.994 12.4199 255.898 12.8831 257.595 13.8095ZM248.177 16.5887C247.045 17.2062 246.17 18.0812 245.449 19.3165C244.781 20.5516 244.42 22.0956 244.42 23.8969C244.42 25.6982 244.781 27.1908 245.449 28.4259C246.119 29.6612 247.045 30.5875 248.177 31.1536C249.31 31.7713 250.546 32.0286 251.832 32.0286C253.17 32.0286 254.405 31.7197 255.486 31.1536C256.619 30.536 257.493 29.6612 258.214 28.4259C258.882 27.1908 259.243 25.6982 259.243 23.8969C259.243 22.0956 258.882 20.5516 258.214 19.3165C257.544 18.0812 256.619 17.1548 255.486 16.5887C254.354 15.9711 253.118 15.7137 251.832 15.7137C250.493 15.7137 249.31 15.9711 248.177 16.5887Z"
        fill="white" />
</svg>