<svg width="20" height="20" viewBox="0 0 20 20" fill="none" xmlns="http://www.w3.org/2000/svg">
<path d="M19.0368 12.1405C17.4772 12.5809 15.8294 12.5953 14.2624 12.1823C12.6955 11.7693 11.266 10.9437 10.1206 9.79043C8.97533 8.63711 8.15551 7.1976 7.74537 5.61972C7.33523 4.04184 7.34957 2.38247 7.78689 0.812012C6.24931 1.24297 4.85068 2.07206 3.73032 3.21672C2.60997 4.36138 1.80698 5.78164 1.40135 7.33606C0.995724 8.89047 1.00161 10.5248 1.41841 12.0762C1.83522 13.6276 2.64841 15.042 3.77698 16.1784C4.90554 17.3149 6.3101 18.1337 7.85075 18.5534C9.3914 18.9732 11.0144 18.9791 12.558 18.5706C14.1016 18.1622 15.512 17.3536 16.6488 16.2254C17.7855 15.0972 18.6088 13.6888 19.0368 12.1405V12.1405Z" stroke="white" stroke-width="1.58869" stroke-linecap="round" stroke-linejoin="round"/>
</svg>
