<svg width="281" height="58" viewBox="0 0 281 58" fill="none" xmlns="http://www.w3.org/2000/svg">
    <path
        d="M7.15909 34.1591L2.0483 29.0483C1.64063 28.6406 1.36884 28.1667 1.23295 27.6264C1.10038 27.0862 1.10204 26.5492 1.23793 26.0156C1.37382 25.4787 1.64394 25.0114 2.0483 24.6136C2.46259 24.206 2.9349 23.9358 3.4652 23.8033C3.99882 23.6674 4.53078 23.6674 5.06108 23.8033C5.5947 23.9392 6.06866 24.2093 6.48295 24.6136L7.15909 25.2699L7.83523 24.6136C8.25284 24.2093 8.7268 23.9392 9.2571 23.8033C9.78741 23.6674 10.3177 23.6674 10.848 23.8033C11.3816 23.9358 11.8556 24.206 12.2699 24.6136C12.6742 25.0114 12.9444 25.4787 13.0803 26.0156C13.2161 26.5492 13.2161 27.0862 13.0803 27.6264C12.9477 28.1667 12.6776 28.6406 12.2699 29.0483L7.15909 34.1591ZM19.1381 23.8182H21.0025L24.244 31.733H24.3633L27.6048 23.8182H29.4691V34H28.0075V26.6321H27.913L24.9102 33.9851H23.6971L20.6942 26.6271H20.5998V34H19.1381V23.8182ZM33.8056 34.169C33.3217 34.169 32.8842 34.0795 32.4931 33.9006C32.102 33.7183 31.7921 33.4548 31.5634 33.1101C31.338 32.7654 31.2253 32.3428 31.2253 31.8423C31.2253 31.4115 31.3082 31.0568 31.4739 30.7784C31.6396 30.5 31.8633 30.2796 32.1451 30.1172C32.4268 29.9548 32.7417 29.8321 33.0897 29.7493C33.4377 29.6664 33.7923 29.6035 34.1536 29.5604C34.611 29.5073 34.9822 29.4643 35.2672 29.4311C35.5523 29.3946 35.7594 29.3366 35.8887 29.2571C36.0179 29.1776 36.0826 29.0483 36.0826 28.8693V28.8345C36.0826 28.4003 35.9599 28.0639 35.7147 27.8253C35.4727 27.5866 35.1114 27.4673 34.6309 27.4673C34.1304 27.4673 33.736 27.5784 33.4476 27.8004C33.1626 28.0192 32.9654 28.2628 32.856 28.5312L31.459 28.2131C31.6247 27.7491 31.8667 27.3745 32.1848 27.0895C32.5063 26.8011 32.8759 26.5923 33.2935 26.4631C33.7111 26.3305 34.1503 26.2642 34.611 26.2642C34.9159 26.2642 35.2391 26.3007 35.5804 26.3736C35.9251 26.4432 36.2466 26.5724 36.5449 26.7614C36.8465 26.9503 37.0935 27.2204 37.2857 27.5717C37.4779 27.9197 37.574 28.3722 37.574 28.929V34H36.1223V32.956H36.0627C35.9666 33.1482 35.8224 33.3371 35.6301 33.5227C35.4379 33.7083 35.191 33.8625 34.8894 33.9851C34.5878 34.1077 34.2265 34.169 33.8056 34.169ZM34.1287 32.9759C34.5397 32.9759 34.891 32.8946 35.1827 32.7322C35.4777 32.5698 35.7014 32.3577 35.8539 32.0959C36.0096 31.8307 36.0875 31.5473 36.0875 31.2457V30.2614C36.0345 30.3144 35.9318 30.3641 35.7793 30.4105C35.6301 30.4536 35.4595 30.4917 35.2672 30.5249C35.075 30.5547 34.8877 30.5829 34.7054 30.6094C34.5231 30.6326 34.3707 30.6525 34.248 30.669C33.9597 30.7055 33.6962 30.7668 33.4576 30.853C33.2222 30.9392 33.0333 31.0634 32.8908 31.2259C32.7516 31.3849 32.682 31.5971 32.682 31.8622C32.682 32.2301 32.8179 32.5085 33.0897 32.6974C33.3614 32.883 33.7078 32.9759 34.1287 32.9759ZM42.4126 34.1491C41.7962 34.1491 41.246 33.9917 40.7621 33.6768C40.2815 33.3587 39.9036 32.9062 39.6286 32.3196C39.3568 31.7296 39.2209 31.022 39.2209 30.1967C39.2209 29.3714 39.3584 28.6655 39.6335 28.0788C39.9119 27.4922 40.2931 27.0431 40.777 26.7315C41.2609 26.42 41.8094 26.2642 42.4226 26.2642C42.8965 26.2642 43.2777 26.3438 43.5661 26.5028C43.8577 26.6586 44.0831 26.8409 44.2422 27.0497C44.4046 27.2585 44.5305 27.4425 44.62 27.6016H44.7095V23.8182H46.196V34H44.7443V32.8118H44.62C44.5305 32.9742 44.4013 33.1598 44.2322 33.3686C44.0665 33.5774 43.8378 33.7597 43.5462 33.9155C43.2545 34.0713 42.8767 34.1491 42.4126 34.1491ZM42.7408 32.8814C43.1683 32.8814 43.5296 32.7687 43.8246 32.5433C44.1229 32.3146 44.3482 31.9981 44.5007 31.5938C44.6565 31.1894 44.7344 30.7187 44.7344 30.1818C44.7344 29.6515 44.6581 29.1875 44.5057 28.7898C44.3532 28.392 44.1295 28.0821 43.8345 27.8601C43.5395 27.638 43.175 27.527 42.7408 27.527C42.2933 27.527 41.9205 27.643 41.6222 27.875C41.3239 28.107 41.0985 28.4235 40.946 28.8246C40.7969 29.2256 40.7223 29.678 40.7223 30.1818C40.7223 30.6922 40.7985 31.1513 40.951 31.5589C41.1035 31.9666 41.3288 32.2898 41.6271 32.5284C41.9287 32.7637 42.3 32.8814 42.7408 32.8814ZM51.6088 34.1541C50.8565 34.1541 50.2085 33.9934 49.665 33.6719C49.1247 33.3471 48.7071 32.8913 48.4121 32.3047C48.1204 31.7147 47.9746 31.0237 47.9746 30.2315C47.9746 29.4493 48.1204 28.7599 48.4121 28.1634C48.7071 27.5668 49.1181 27.1011 49.6451 26.7663C50.1754 26.4316 50.7952 26.2642 51.5044 26.2642C51.9353 26.2642 52.3529 26.3355 52.7573 26.478C53.1616 26.6205 53.5246 26.8442 53.8461 27.1491C54.1676 27.4541 54.4211 27.8501 54.6067 28.3374C54.7923 28.8213 54.8851 29.4096 54.8851 30.1023V30.6293H48.8148V29.5156H53.4284C53.4284 29.1245 53.3489 28.7782 53.1898 28.4766C53.0307 28.1716 52.807 27.9313 52.5186 27.7557C52.2336 27.58 51.8989 27.4922 51.5144 27.4922C51.0968 27.4922 50.7322 27.5949 50.4206 27.8004C50.1124 28.0026 49.8738 28.2678 49.7047 28.5959C49.539 28.9207 49.4561 29.2737 49.4561 29.6548V30.5249C49.4561 31.0353 49.5456 31.4695 49.7246 31.8274C49.9069 32.1854 50.1605 32.4588 50.4853 32.6477C50.8101 32.8333 51.1896 32.9261 51.6238 32.9261C51.9055 32.9261 52.1623 32.8864 52.3944 32.8068C52.6264 32.724 52.8269 32.6013 52.9959 32.4389C53.165 32.2765 53.2942 32.076 53.3837 31.8374L54.7907 32.0909C54.678 32.5052 54.4758 32.8681 54.1841 33.1797C53.8958 33.4879 53.5328 33.7282 53.0953 33.9006C52.6612 34.0696 52.1657 34.1541 51.6088 34.1541ZM61.8951 34L59.6479 26.3636H61.1841L62.6806 31.9716H62.7551L64.2566 26.3636H65.7928L67.2843 31.9467H67.3588L68.8453 26.3636H70.3816L68.1394 34H66.623L65.0719 28.4865H64.9576L63.4064 34H61.8951ZM71.7923 34V26.3636H73.2788V34H71.7923ZM72.543 25.1854C72.2844 25.1854 72.0624 25.0992 71.8768 24.9268C71.6945 24.7512 71.6033 24.5424 71.6033 24.3004C71.6033 24.0552 71.6945 23.8464 71.8768 23.674C72.0624 23.4983 72.2844 23.4105 72.543 23.4105C72.8015 23.4105 73.0219 23.4983 73.2042 23.674C73.3898 23.8464 73.4826 24.0552 73.4826 24.3004C73.4826 24.5424 73.3898 24.7512 73.2042 24.9268C73.0219 25.0992 72.8015 25.1854 72.543 25.1854ZM78.8432 26.3636V27.5568H74.6721V26.3636H78.8432ZM75.7907 24.5341H77.2772V31.7578C77.2772 32.0462 77.3203 32.2633 77.4064 32.4091C77.4926 32.5516 77.6036 32.6494 77.7395 32.7024C77.8787 32.7521 78.0295 32.777 78.1919 32.777C78.3113 32.777 78.4157 32.7687 78.5051 32.7521C78.5946 32.7356 78.6642 32.7223 78.714 32.7124L78.9824 33.9403C78.8962 33.9735 78.7736 34.0066 78.6145 34.0398C78.4554 34.0762 78.2566 34.0961 78.0179 34.0994C77.6268 34.1061 77.2623 34.0365 76.9242 33.8906C76.5861 33.7448 76.3127 33.5194 76.1039 33.2145C75.8951 32.9096 75.7907 32.5268 75.7907 32.0661V24.5341ZM82.1381 29.4659V34H80.6516V23.8182H82.1183V27.6065H82.2127C82.3917 27.1955 82.6651 26.8691 83.033 26.6271C83.4009 26.3852 83.8815 26.2642 84.4748 26.2642C84.9985 26.2642 85.4558 26.3719 85.8469 26.5874C86.2414 26.8028 86.5463 27.1243 86.7617 27.5518C86.9805 27.9761 87.0898 28.5064 87.0898 29.1428V34H85.6033V29.3217C85.6033 28.7616 85.4592 28.3274 85.1708 28.0192C84.8825 27.7076 84.4814 27.5518 83.9677 27.5518C83.6164 27.5518 83.3015 27.6264 83.0231 27.7756C82.748 27.9247 82.5309 28.1435 82.3718 28.4318C82.216 28.7169 82.1381 29.0616 82.1381 29.4659ZM94.2651 23.8182V34H92.7786V23.8182H94.2651ZM99.4815 34.1541C98.7656 34.1541 98.1409 33.9901 97.6072 33.6619C97.0736 33.3338 96.6593 32.8748 96.3643 32.2848C96.0694 31.6948 95.9219 31.0054 95.9219 30.2166C95.9219 29.4245 96.0694 28.7318 96.3643 28.1385C96.6593 27.5452 97.0736 27.0845 97.6072 26.7564C98.1409 26.4283 98.7656 26.2642 99.4815 26.2642C100.197 26.2642 100.822 26.4283 101.356 26.7564C101.889 27.0845 102.304 27.5452 102.599 28.1385C102.894 28.7318 103.041 29.4245 103.041 30.2166C103.041 31.0054 102.894 31.6948 102.599 32.2848C102.304 32.8748 101.889 33.3338 101.356 33.6619C100.822 33.9901 100.197 34.1541 99.4815 34.1541ZM99.4865 32.9062C99.9505 32.9062 100.335 32.7836 100.64 32.5384C100.945 32.2931 101.17 31.9666 101.316 31.5589C101.465 31.1513 101.54 30.7022 101.54 30.2116C101.54 29.7244 101.465 29.277 101.316 28.8693C101.17 28.4583 100.945 28.1286 100.64 27.88C100.335 27.6314 99.9505 27.5071 99.4865 27.5071C99.0192 27.5071 98.6314 27.6314 98.3232 27.88C98.0182 28.1286 97.7912 28.4583 97.642 28.8693C97.4962 29.277 97.4233 29.7244 97.4233 30.2116C97.4233 30.7022 97.4962 31.1513 97.642 31.5589C97.7912 31.9666 98.0182 32.2931 98.3232 32.5384C98.6314 32.7836 99.0192 32.9062 99.4865 32.9062ZM110.973 26.3636L108.204 34H106.613L103.839 26.3636H105.435L107.369 32.2401H107.449L109.377 26.3636H110.973ZM115.402 34.1541C114.649 34.1541 114.001 33.9934 113.458 33.6719C112.918 33.3471 112.5 32.8913 112.205 32.3047C111.913 31.7147 111.768 31.0237 111.768 30.2315C111.768 29.4493 111.913 28.7599 112.205 28.1634C112.5 27.5668 112.911 27.1011 113.438 26.7663C113.968 26.4316 114.588 26.2642 115.297 26.2642C115.728 26.2642 116.146 26.3355 116.55 26.478C116.955 26.6205 117.318 26.8442 117.639 27.1491C117.961 27.4541 118.214 27.8501 118.4 28.3374C118.585 28.8213 118.678 29.4096 118.678 30.1023V30.6293H112.608V29.5156H117.221C117.221 29.1245 117.142 28.7782 116.983 28.4766C116.824 28.1716 116.6 27.9313 116.312 27.7557C116.027 27.58 115.692 27.4922 115.307 27.4922C114.89 27.4922 114.525 27.5949 114.214 27.8004C113.905 28.0026 113.667 28.2678 113.498 28.5959C113.332 28.9207 113.249 29.2737 113.249 29.6548V30.5249C113.249 31.0353 113.339 31.4695 113.518 31.8274C113.7 32.1854 113.953 32.4588 114.278 32.6477C114.603 32.8333 114.983 32.9261 115.417 32.9261C115.698 32.9261 115.955 32.8864 116.187 32.8068C116.419 32.724 116.62 32.6013 116.789 32.4389C116.958 32.2765 117.087 32.076 117.177 31.8374L118.584 32.0909C118.471 32.5052 118.269 32.8681 117.977 33.1797C117.689 33.4879 117.326 33.7282 116.888 33.9006C116.454 34.0696 115.959 34.1541 115.402 34.1541ZM124.152 34V23.8182H125.638V27.6016H125.728C125.814 27.4425 125.938 27.2585 126.101 27.0497C126.263 26.8409 126.488 26.6586 126.777 26.5028C127.065 26.3438 127.446 26.2642 127.92 26.2642C128.537 26.2642 129.087 26.42 129.571 26.7315C130.055 27.0431 130.434 27.4922 130.709 28.0788C130.988 28.6655 131.127 29.3714 131.127 30.1967C131.127 31.022 130.989 31.7296 130.714 32.3196C130.439 32.9062 130.061 33.3587 129.581 33.6768C129.1 33.9917 128.552 34.1491 127.935 34.1491C127.471 34.1491 127.092 34.0713 126.797 33.9155C126.505 33.7597 126.276 33.5774 126.111 33.3686C125.945 33.1598 125.817 32.9742 125.728 32.8118H125.604V34H124.152ZM125.608 30.1818C125.608 30.7187 125.686 31.1894 125.842 31.5938C125.998 31.9981 126.223 32.3146 126.518 32.5433C126.813 32.7687 127.175 32.8814 127.602 32.8814C128.046 32.8814 128.417 32.7637 128.716 32.5284C129.014 32.2898 129.239 31.9666 129.392 31.5589C129.548 31.1513 129.626 30.6922 129.626 30.1818C129.626 29.678 129.549 29.2256 129.397 28.8246C129.248 28.4235 129.022 28.107 128.721 27.875C128.422 27.643 128.05 27.527 127.602 27.527C127.171 27.527 126.807 27.638 126.508 27.8601C126.213 28.0821 125.99 28.392 125.837 28.7898C125.685 29.1875 125.608 29.6515 125.608 30.1818ZM133.476 36.8636C133.254 36.8636 133.052 36.8454 132.869 36.8089C132.687 36.7758 132.551 36.7393 132.462 36.6996L132.82 35.4815C133.092 35.5545 133.334 35.5859 133.546 35.576C133.758 35.5661 133.945 35.4865 134.107 35.3374C134.273 35.1882 134.419 34.9446 134.545 34.6065L134.729 34.0994L131.935 26.3636H133.526L135.46 32.2898H135.539L137.473 26.3636H139.069L135.922 35.0192C135.776 35.4169 135.591 35.7533 135.365 36.0284C135.14 36.3068 134.871 36.5156 134.56 36.6548C134.248 36.794 133.887 36.8636 133.476 36.8636Z"
        fill="white" />
    <path
        d="M153.76 28.0043C156.374 28.8119 158.081 31.0003 160.953 31.0003C163.876 31.0003 165.998 28.1867 167.55 28.0043C168.947 27.8219 171.12 28.3429 172.906 29.2027V22.0903C172.931 19.1203 170.551 16.7235 167.602 16.7235H154.33C151.38 16.7235 149 19.1203 149 22.0903V28.8119C150.294 28.1867 152.208 27.5093 153.76 28.0043Z"
        fill="#20C58B" />
    <path
        d="M167.55 28.003C165.998 28.2114 163.876 30.999 160.953 30.999C158.185 30.999 156.399 28.8106 153.76 28.003C152.208 27.508 150.294 28.1853 149 28.8106V35.428C149 38.398 151.38 40.7948 154.33 40.7948H167.602C170.551 40.7948 172.931 38.398 172.931 35.428V29.1753C171.146 28.3416 168.947 27.8206 167.55 28.003Z"
        fill="#5858E0" />
    <path
        d="M154.223 35.7684C153.291 35.7684 152.541 35.0129 152.541 34.075V23.4716C152.541 22.5337 153.291 21.7782 154.223 21.7782C155.154 21.7782 155.904 22.5337 155.904 23.4716V34.049C155.904 34.9869 155.154 35.7684 154.223 35.7684Z"
        fill="white" />
    <path
        d="M160.953 33.37C160.022 33.37 159.271 32.6145 159.271 31.6766V25.8668C159.271 24.929 160.022 24.1735 160.953 24.1735C161.884 24.1735 162.635 24.929 162.635 25.8668V31.7026C162.635 32.6145 161.884 33.37 160.953 33.37Z"
        fill="white" />
    <path
        d="M167.68 35.7684C166.748 35.7684 165.998 35.0129 165.998 34.075V23.4716C165.998 22.5337 166.748 21.7782 167.68 21.7782C168.611 21.7782 169.361 22.5337 169.361 23.4716V34.049C169.361 34.9869 168.611 35.7684 167.68 35.7684Z"
        fill="white" />
    <path
        d="M194.846 24.1728C195.649 25.0065 196.037 26.231 196.037 27.8202V34.3854H194.174V28.0025C194.174 26.8823 193.915 26.0486 193.372 25.4494C192.829 24.8502 192.104 24.5636 191.147 24.5636C190.164 24.5636 189.388 24.9023 188.793 25.5536C188.197 26.2049 187.913 27.1689 187.913 28.4194V34.4115H186.05V28.0025C186.05 26.8823 185.765 26.0486 185.222 25.4494C184.679 24.8502 183.954 24.5636 183.023 24.5636C182.04 24.5636 181.238 24.9023 180.643 25.5536C180.048 26.2049 179.763 27.1689 179.763 28.4194V34.4115H177.9V23.1047H179.763V25.6839C180.048 24.7981 180.513 24.1207 181.212 23.6257C181.911 23.1568 182.713 22.9223 183.644 22.9223C184.601 22.9223 185.429 23.1568 186.128 23.6518C186.826 24.1468 187.318 24.8502 187.628 25.8141C187.939 24.9023 188.456 24.1989 189.206 23.6778C189.931 23.1828 190.785 22.9223 191.69 22.9223C193.01 22.9223 194.044 23.3391 194.846 24.1728Z"
        fill="white" />
    <path
        d="M206.28 23.7812C207.031 24.3284 207.574 25.0578 207.859 25.9697V23.1039H209.721V34.3846H207.859V31.5189C207.548 32.4307 207.031 33.1602 206.28 33.7073C205.53 34.2544 204.599 34.541 203.512 34.541C202.529 34.541 201.624 34.3065 200.847 33.8376C200.071 33.3686 199.45 32.6912 199.011 31.8315C198.571 30.9718 198.338 29.9296 198.338 28.7573C198.338 27.5849 198.571 26.5428 199.011 25.6831C199.45 24.7973 200.071 24.146 200.847 23.677C201.624 23.2081 202.503 22.9736 203.512 22.9736C204.625 22.9476 205.53 23.2341 206.28 23.7812ZM201.313 25.7352C200.615 26.4646 200.278 27.4807 200.278 28.7573C200.278 30.0338 200.615 31.0499 201.313 31.7794C202.012 32.5089 202.917 32.8736 204.056 32.8736C204.78 32.8736 205.453 32.6912 206.022 32.3526C206.591 32.0138 207.057 31.5189 207.393 30.8936C207.729 30.2683 207.885 29.5389 207.885 28.7312C207.885 27.8975 207.729 27.1941 207.393 26.5428C207.057 25.9175 206.617 25.4226 206.022 25.0839C205.453 24.7452 204.78 24.5889 204.056 24.5889C202.917 24.6149 201.986 24.9797 201.313 25.7352Z"
        fill="white" />
    <path
        d="M212.727 18.9634C212.959 18.755 213.27 18.6508 213.657 18.6508C214.046 18.6508 214.356 18.755 214.589 18.9634C214.822 19.1719 214.925 19.4584 214.925 19.7971C214.925 20.1358 214.822 20.4224 214.589 20.6308C214.356 20.8392 214.046 20.9434 213.657 20.9434C213.27 20.9434 212.959 20.8392 212.727 20.6308C212.493 20.4224 212.39 20.1358 212.39 19.7971C212.364 19.4584 212.493 19.1719 212.727 18.9634ZM214.563 23.1058V34.3866H212.7V23.1058H214.563Z"
        fill="white" />
    <path d="M219.398 19.1715V34.3862H217.535V19.1715H219.398Z" fill="white" />
    <path
        d="M239.321 24.1729C240.123 25.0065 240.511 26.231 240.511 27.8202V34.3855H238.649V28.0026C238.649 26.8824 238.39 26.0487 237.847 25.4495C237.303 24.8503 236.579 24.5637 235.622 24.5637C234.638 24.5637 233.863 24.9024 233.268 25.5537C232.672 26.205 232.387 27.1689 232.387 28.4194V34.4116H230.525V28.0026C230.525 26.8824 230.24 26.0487 229.697 25.4495C229.154 24.8503 228.429 24.5637 227.498 24.5637C226.515 24.5637 225.712 24.9024 225.118 25.5537C224.523 26.205 224.238 27.1689 224.238 28.4194V34.4116H222.375V23.1047H224.238V25.6839C224.523 24.7982 224.988 24.1208 225.687 23.6258C226.386 23.1568 227.188 22.9224 228.119 22.9224C229.076 22.9224 229.904 23.1568 230.603 23.6518C231.301 24.1468 231.793 24.8503 232.103 25.8142C232.414 24.9024 232.931 24.1989 233.681 23.6779C234.406 23.1829 235.26 22.9224 236.165 22.9224C237.485 22.9224 238.519 23.3392 239.321 24.1729Z"
        fill="white" />
    <path
        d="M251.378 23.6529C252.232 24.1219 252.904 24.7992 253.37 25.659C253.861 26.5448 254.094 27.5608 254.094 28.7332C254.094 29.9056 253.861 30.9477 253.37 31.8074C252.879 32.6671 252.232 33.3445 251.378 33.8134C250.524 34.2824 249.567 34.5168 248.48 34.5168C247.393 34.5168 246.436 34.2824 245.582 33.8134C244.728 33.3445 244.056 32.6671 243.564 31.8074C243.073 30.9477 242.84 29.9056 242.84 28.7332C242.84 27.5608 243.073 26.5187 243.564 25.659C244.056 24.7732 244.728 24.1219 245.582 23.6529C246.436 23.184 247.393 22.9495 248.48 22.9495C249.567 22.9495 250.524 23.184 251.378 23.6529ZM246.643 25.0598C246.074 25.3724 245.634 25.8153 245.272 26.4406C244.936 27.0658 244.755 27.8474 244.755 28.7593C244.755 29.6711 244.936 30.4266 245.272 31.0518C245.609 31.6771 246.074 32.1461 246.643 32.4326C247.213 32.7453 247.833 32.8756 248.48 32.8756C249.153 32.8756 249.774 32.7192 250.317 32.4326C250.886 32.12 251.326 31.6771 251.688 31.0518C252.05 30.4266 252.205 29.6711 252.205 28.7593C252.205 27.8474 252.025 27.0658 251.688 26.4406C251.352 25.8153 250.886 25.3464 250.317 25.0598C249.748 24.7472 249.127 24.6169 248.48 24.6169C247.833 24.6169 247.213 24.7472 246.643 25.0598Z"
        fill="white" />
    <path
        d="M263.901 23.7828C264.652 24.3299 265.195 25.0594 265.48 25.9712V19.1715H267.343V34.3862H265.48V31.5204C265.169 32.4323 264.652 33.1617 263.901 33.7088C263.151 34.2559 262.22 34.5425 261.133 34.5425C260.15 34.5425 259.245 34.308 258.469 33.8391C257.692 33.3702 257.071 32.6928 256.631 31.8331C256.192 30.9733 255.959 29.9312 255.959 28.7588C255.959 27.5865 256.192 26.5444 256.631 25.6847C257.071 24.7989 257.692 24.1475 258.469 23.6786C259.245 23.2096 260.124 22.9752 261.133 22.9752C262.22 22.9491 263.151 23.2357 263.901 23.7828ZM258.909 25.7368C258.21 26.4662 257.873 27.4823 257.873 28.7588C257.873 30.0354 258.21 31.0515 258.909 31.781C259.607 32.5104 260.513 32.8751 261.651 32.8751C262.375 32.8751 263.048 32.6928 263.617 32.3541C264.186 32.0154 264.652 31.5204 264.988 30.8951C265.325 30.2699 265.48 29.5404 265.48 28.7328C265.48 27.8991 265.325 27.1957 264.988 26.5444C264.652 25.9191 264.212 25.4241 263.617 25.0855C263.048 24.7467 262.375 24.5904 261.651 24.5904C260.513 24.6165 259.607 24.9813 258.909 25.7368Z"
        fill="white" />
    <path
        d="M278.281 23.6529C279.135 24.1219 279.808 24.7992 280.274 25.659C280.766 26.5448 280.998 27.5608 280.998 28.7332C280.998 29.9056 280.766 30.9477 280.274 31.8074C279.782 32.6671 279.135 33.3445 278.281 33.8134C277.428 34.2824 276.471 34.5168 275.384 34.5168C274.298 34.5168 273.34 34.2824 272.487 33.8134C271.633 33.3445 270.96 32.6671 270.469 31.8074C269.977 30.9477 269.744 29.9056 269.744 28.7332C269.744 27.5608 269.977 26.5187 270.469 25.659C270.96 24.7732 271.633 24.1219 272.487 23.6529C273.34 23.184 274.298 22.9495 275.384 22.9495C276.471 22.9495 277.428 23.184 278.281 23.6529ZM273.547 25.0598C272.978 25.3724 272.538 25.8153 272.176 26.4406C271.84 27.0658 271.658 27.8474 271.658 28.7593C271.658 29.6711 271.84 30.4266 272.176 31.0518C272.512 31.6771 272.978 32.1461 273.547 32.4326C274.116 32.7453 274.738 32.8756 275.384 32.8756C276.057 32.8756 276.677 32.7192 277.221 32.4326C277.79 32.12 278.23 31.6771 278.592 31.0518C278.928 30.4266 279.11 29.6711 279.11 28.7593C279.11 27.8474 278.928 27.0658 278.592 26.4406C278.256 25.8153 277.79 25.3464 277.221 25.0598C276.652 24.7472 276.031 24.6169 275.384 24.6169C274.711 24.6169 274.116 24.7472 273.547 25.0598Z"
        fill="white" />
</svg>