<svg width="66" height="66" viewBox="0 0 66 66" fill="none" xmlns="http://www.w3.org/2000/svg">
<circle cx="42.1265" cy="42.1265" r="13.6235" fill="#54B9A6"/>
<g filter="url(#filter0_b_130_7408)">
<path d="M10.25 17.6628C10.25 13.5688 13.5688 10.25 17.6628 10.25H47.8081C51.9021 10.25 55.2209 13.5688 55.2209 17.6628V32.7355L43.9782 43.9782L32.7355 55.2209H17.6628C13.5688 55.2209 10.25 51.9021 10.25 47.8081V17.6628Z" fill="url(#paint0_linear_130_7408)" fill-opacity="0.3"/>
<path d="M10.5 17.6628C10.5 13.7069 13.7069 10.5 17.6628 10.5H47.8081C51.764 10.5 54.9709 13.7069 54.9709 17.6628V32.6319L43.8014 43.8014L32.6319 54.9709H17.6628C13.7069 54.9709 10.5 51.764 10.5 47.8081V17.6628Z" stroke="url(#paint1_linear_130_7408)" stroke-opacity="0.44" stroke-width="0.5"/>
<path d="M10.5 17.6628C10.5 13.7069 13.7069 10.5 17.6628 10.5H47.8081C51.764 10.5 54.9709 13.7069 54.9709 17.6628V32.6319L43.8014 43.8014L32.6319 54.9709H17.6628C13.7069 54.9709 10.5 51.764 10.5 47.8081V17.6628Z" stroke="url(#paint2_radial_130_7408)" stroke-width="0.5"/>
</g>
<rect x="15.651" y="19.7832" width="11.4568" height="2.45504" rx="1.22752" fill="white"/>
<rect x="22.6887" y="15.3232" width="11.4568" height="2.45504" rx="1.22752" transform="rotate(90 22.6887 15.3232)" fill="white"/>
<defs>
<filter id="filter0_b_130_7408" x="7.28488" y="7.28488" width="50.9012" height="50.9009" filterUnits="userSpaceOnUse" color-interpolation-filters="sRGB">
<feFlood flood-opacity="0" result="BackgroundImageFix"/>
<feGaussianBlur in="BackgroundImageFix" stdDeviation="1.48256"/>
<feComposite in2="SourceAlpha" operator="in" result="effect1_backgroundBlur_130_7408"/>
<feBlend mode="normal" in="SourceGraphic" in2="effect1_backgroundBlur_130_7408" result="shape"/>
</filter>
<linearGradient id="paint0_linear_130_7408" x1="15.0624" y1="14.3991" x2="63.6026" y2="39.5326" gradientUnits="userSpaceOnUse">
<stop stop-color="#54B9A6" stop-opacity="0.9"/>
<stop offset="0.447036" stop-color="#54B9A6" stop-opacity="0.955296"/>
<stop offset="1" stop-color="#54B9A6" stop-opacity="0.9"/>
</linearGradient>
<linearGradient id="paint1_linear_130_7408" x1="16.7218" y1="8.6439" x2="58.8745" y2="33.2553" gradientUnits="userSpaceOnUse">
<stop offset="0.188941" stop-color="#E7F0FF" stop-opacity="0.523483"/>
<stop offset="0.526042" stop-color="#54B9A6"/>
<stop offset="1" stop-color="#54B9A6" stop-opacity="0.1"/>
</linearGradient>
<radialGradient id="paint2_radial_130_7408" cx="0" cy="0" r="1" gradientUnits="userSpaceOnUse" gradientTransform="translate(48.6127 69.5784) rotate(-102.264) scale(44.2779 72.3993)">
<stop stop-color="white"/>
<stop offset="1" stop-color="white" stop-opacity="0"/>
</radialGradient>
</defs>
</svg>
